<svg xmlns="http://www.w3.org/2000/svg" width="900" height="360" viewBox="0 0 900 360">
  <rect width="900" height="360" fill="#ffffff"/>
  <text x="32" y="34" font-family="Arial, sans-serif" font-size="20" fill="#222">Nagare CPU forward time, median us/sample</text>
  <text x="32" y="58" font-family="Arial, sans-serif" font-size="12" fill="#555">192 train / 96 test / 48 points / hidden 32 / release build</text>
  <line x1="150" y1="300" x2="840" y2="300" stroke="#333" stroke-width="1"/>
  <line x1="150" y1="80" x2="150" y2="300" stroke="#333" stroke-width="1"/>
  <text x="120" y="304" font-family="Arial, sans-serif" font-size="11" fill="#555">0</text>
  <text x="108" y="194" font-family="Arial, sans-serif" font-size="11" fill="#555">50</text>
  <text x="101" y="84" font-family="Arial, sans-serif" font-size="11" fill="#555">100</text>
  <line x1="145" y1="190" x2="840" y2="190" stroke="#ddd"/>
  <line x1="145" y1="80" x2="840" y2="80" stroke="#ddd"/>
  <text x="48" y="120" font-family="Arial, sans-serif" font-size="14" fill="#222">moons</text>
  <rect x="150" y="100" width="104" height="22" fill="#3b82f6"/>
  <rect x="150" y="128" width="629" height="22" fill="#ef4444"/>
  <text x="262" y="117" font-family="Arial, sans-serif" font-size="12" fill="#222">baseline 15.03</text>
  <text x="786" y="145" font-family="Arial, sans-serif" font-size="12" fill="#222">entropy 91.21</text>
  <text x="48" y="190" font-family="Arial, sans-serif" font-size="14" fill="#222">rings</text>
  <rect x="150" y="170" width="112" height="22" fill="#3b82f6"/>
  <rect x="150" y="198" width="631" height="22" fill="#ef4444"/>
  <text x="270" y="187" font-family="Arial, sans-serif" font-size="12" fill="#222">baseline 16.28</text>
  <text x="788" y="215" font-family="Arial, sans-serif" font-size="12" fill="#222">entropy 91.44</text>
  <text x="48" y="260" font-family="Arial, sans-serif" font-size="14" fill="#222">xor</text>
  <rect x="150" y="240" width="110" height="22" fill="#3b82f6"/>
  <rect x="150" y="268" width="570" height="22" fill="#ef4444"/>
  <text x="268" y="257" font-family="Arial, sans-serif" font-size="12" fill="#222">baseline 15.97</text>
  <text x="728" y="285" font-family="Arial, sans-serif" font-size="12" fill="#222">entropy 82.66</text>
  <rect x="610" y="28" width="16" height="16" fill="#3b82f6"/>
  <text x="632" y="41" font-family="Arial, sans-serif" font-size="12" fill="#222">baseline</text>
  <rect x="710" y="28" width="16" height="16" fill="#ef4444"/>
  <text x="732" y="41" font-family="Arial, sans-serif" font-size="12" fill="#222">entropy feedback</text>
</svg>
